<mxfile host="app.diagrams.net" agent="Mozilla/5.0 (X11; Ubuntu; Linux x86_64; rv:138.0) Gecko/20100101 Firefox/138.0" version="27.1.4">
  <diagram name="第 1 页" id="z-py1rGn_Ya1MJFAARSf">
    <mxGraphModel dx="1356" dy="765" grid="1" gridSize="10" guides="1" tooltips="1" connect="1" arrows="1" fold="1" page="1" pageScale="1" pageWidth="827" pageHeight="1169" math="0" shadow="0">
      <root>
        <mxCell id="0" />
        <mxCell id="1" parent="0" />
        <mxCell id="bZHmnCdVlWdmFKNPFxgX-5" value="" style="edgeStyle=orthogonalEdgeStyle;rounded=0;orthogonalLoop=1;jettySize=auto;html=1;" edge="1" parent="1" source="bZHmnCdVlWdmFKNPFxgX-1" target="bZHmnCdVlWdmFKNPFxgX-3">
          <mxGeometry relative="1" as="geometry">
            <Array as="points">
              <mxPoint x="410" y="340" />
              <mxPoint x="410" y="340" />
            </Array>
          </mxGeometry>
        </mxCell>
        <mxCell id="bZHmnCdVlWdmFKNPFxgX-7" style="edgeStyle=orthogonalEdgeStyle;rounded=0;orthogonalLoop=1;jettySize=auto;html=1;" edge="1" parent="1" source="bZHmnCdVlWdmFKNPFxgX-1" target="bZHmnCdVlWdmFKNPFxgX-2">
          <mxGeometry relative="1" as="geometry">
            <Array as="points">
              <mxPoint x="410" y="340" />
              <mxPoint x="220" y="340" />
            </Array>
          </mxGeometry>
        </mxCell>
        <mxCell id="bZHmnCdVlWdmFKNPFxgX-8" style="edgeStyle=orthogonalEdgeStyle;rounded=0;orthogonalLoop=1;jettySize=auto;html=1;" edge="1" parent="1" source="bZHmnCdVlWdmFKNPFxgX-1" target="bZHmnCdVlWdmFKNPFxgX-4">
          <mxGeometry relative="1" as="geometry">
            <Array as="points">
              <mxPoint x="410" y="340" />
              <mxPoint x="600" y="340" />
            </Array>
          </mxGeometry>
        </mxCell>
        <mxCell id="bZHmnCdVlWdmFKNPFxgX-1" value="Sentry_Nav" style="rounded=0;whiteSpace=wrap;html=1;" vertex="1" parent="1">
          <mxGeometry x="350" y="250" width="120" height="60" as="geometry" />
        </mxCell>
        <mxCell id="bZHmnCdVlWdmFKNPFxgX-12" value="" style="edgeStyle=orthogonalEdgeStyle;rounded=0;orthogonalLoop=1;jettySize=auto;html=1;" edge="1" parent="1" source="bZHmnCdVlWdmFKNPFxgX-2" target="bZHmnCdVlWdmFKNPFxgX-9">
          <mxGeometry relative="1" as="geometry" />
        </mxCell>
        <mxCell id="bZHmnCdVlWdmFKNPFxgX-2" value="autoaim" style="rounded=0;whiteSpace=wrap;html=1;" vertex="1" parent="1">
          <mxGeometry x="160" y="370" width="120" height="60" as="geometry" />
        </mxCell>
        <mxCell id="bZHmnCdVlWdmFKNPFxgX-13" value="" style="edgeStyle=orthogonalEdgeStyle;rounded=0;orthogonalLoop=1;jettySize=auto;html=1;" edge="1" parent="1" source="bZHmnCdVlWdmFKNPFxgX-3" target="bZHmnCdVlWdmFKNPFxgX-10">
          <mxGeometry relative="1" as="geometry" />
        </mxCell>
        <mxCell id="bZHmnCdVlWdmFKNPFxgX-3" value="navigation" style="rounded=0;whiteSpace=wrap;html=1;" vertex="1" parent="1">
          <mxGeometry x="350" y="370" width="120" height="60" as="geometry" />
        </mxCell>
        <mxCell id="bZHmnCdVlWdmFKNPFxgX-14" value="" style="edgeStyle=orthogonalEdgeStyle;rounded=0;orthogonalLoop=1;jettySize=auto;html=1;" edge="1" parent="1" source="bZHmnCdVlWdmFKNPFxgX-4" target="bZHmnCdVlWdmFKNPFxgX-11">
          <mxGeometry relative="1" as="geometry" />
        </mxCell>
        <mxCell id="bZHmnCdVlWdmFKNPFxgX-4" value="judge" style="rounded=0;whiteSpace=wrap;html=1;" vertex="1" parent="1">
          <mxGeometry x="540" y="370" width="120" height="60" as="geometry" />
        </mxCell>
        <mxCell id="bZHmnCdVlWdmFKNPFxgX-19" value="" style="edgeStyle=orthogonalEdgeStyle;rounded=0;orthogonalLoop=1;jettySize=auto;html=1;" edge="1" parent="1" source="bZHmnCdVlWdmFKNPFxgX-9" target="bZHmnCdVlWdmFKNPFxgX-18">
          <mxGeometry relative="1" as="geometry" />
        </mxCell>
        <mxCell id="bZHmnCdVlWdmFKNPFxgX-9" value="自瞄" style="rounded=0;whiteSpace=wrap;html=1;" vertex="1" parent="1">
          <mxGeometry x="160" y="480" width="120" height="60" as="geometry" />
        </mxCell>
        <mxCell id="bZHmnCdVlWdmFKNPFxgX-20" style="edgeStyle=orthogonalEdgeStyle;rounded=0;orthogonalLoop=1;jettySize=auto;html=1;entryX=1;entryY=0.5;entryDx=0;entryDy=0;" edge="1" parent="1" source="bZHmnCdVlWdmFKNPFxgX-10" target="bZHmnCdVlWdmFKNPFxgX-18">
          <mxGeometry relative="1" as="geometry" />
        </mxCell>
        <mxCell id="bZHmnCdVlWdmFKNPFxgX-10" value="导航" style="rounded=0;whiteSpace=wrap;html=1;" vertex="1" parent="1">
          <mxGeometry x="350" y="480" width="120" height="60" as="geometry" />
        </mxCell>
        <mxCell id="bZHmnCdVlWdmFKNPFxgX-16" value="" style="edgeStyle=orthogonalEdgeStyle;rounded=0;orthogonalLoop=1;jettySize=auto;html=1;" edge="1" parent="1" source="bZHmnCdVlWdmFKNPFxgX-11" target="bZHmnCdVlWdmFKNPFxgX-15">
          <mxGeometry relative="1" as="geometry" />
        </mxCell>
        <mxCell id="bZHmnCdVlWdmFKNPFxgX-11" value="决策" style="rounded=0;whiteSpace=wrap;html=1;" vertex="1" parent="1">
          <mxGeometry x="540" y="480" width="120" height="60" as="geometry" />
        </mxCell>
        <mxCell id="bZHmnCdVlWdmFKNPFxgX-17" style="edgeStyle=orthogonalEdgeStyle;rounded=0;orthogonalLoop=1;jettySize=auto;html=1;entryX=1;entryY=0.5;entryDx=0;entryDy=0;" edge="1" parent="1" source="bZHmnCdVlWdmFKNPFxgX-15" target="bZHmnCdVlWdmFKNPFxgX-10">
          <mxGeometry relative="1" as="geometry" />
        </mxCell>
        <mxCell id="bZHmnCdVlWdmFKNPFxgX-15" value="调用Nav2_API" style="rounded=0;whiteSpace=wrap;html=1;" vertex="1" parent="1">
          <mxGeometry x="540" y="590" width="120" height="60" as="geometry" />
        </mxCell>
        <mxCell id="bZHmnCdVlWdmFKNPFxgX-22" value="" style="edgeStyle=orthogonalEdgeStyle;rounded=0;orthogonalLoop=1;jettySize=auto;html=1;" edge="1" parent="1" source="bZHmnCdVlWdmFKNPFxgX-18" target="bZHmnCdVlWdmFKNPFxgX-21">
          <mxGeometry relative="1" as="geometry" />
        </mxCell>
        <mxCell id="bZHmnCdVlWdmFKNPFxgX-18" value="rm_serial_driver" style="rounded=0;whiteSpace=wrap;html=1;" vertex="1" parent="1">
          <mxGeometry x="160" y="590" width="120" height="60" as="geometry" />
        </mxCell>
        <mxCell id="bZHmnCdVlWdmFKNPFxgX-21" value="下位机" style="rounded=0;whiteSpace=wrap;html=1;" vertex="1" parent="1">
          <mxGeometry x="160" y="700" width="120" height="60" as="geometry" />
        </mxCell>
      </root>
    </mxGraphModel>
  </diagram>
</mxfile>
